<svg xmlns="http://www.w3.org/2000/svg" viewBox="0 -0.5 64 64" shape-rendering="crispEdges">
<metadata>Made with Pixels to Svg https://codepen.io/shshaw/pen/XbxvNj</metadata>
<path stroke="#d7a00d" d="M24 8h16M24 9h16M24 10h16M19 11h5M40 11h5M19 12h5M40 12h5M16 13h3M45 13h3M16 14h3M45 14h3M16 15h3M45 15h3M13 16h3M48 16h3M13 17h3M48 17h3M13 18h3M48 18h3M11 19h2M19 19h10M35 19h10M51 19h2M11 20h2M19 20h10M35 20h10M51 20h2M11 21h2M16 21h5M29 21h6M43 21h5M51 21h2M11 22h2M16 22h5M29 22h6M43 22h5M51 22h2M11 23h2M16 23h5M29 23h6M43 23h5M51 23h2M8 24h3M16 24h3M45 24h3M53 24h3M8 25h3M16 25h3M45 25h3M53 25h3M8 26h3M16 26h3M45 26h3M53 26h3M8 27h3M16 27h3M45 27h3M53 27h3M8 28h3M16 28h3M45 28h3M53 28h3M8 29h3M16 29h3M45 29h3M53 29h3M8 30h3M16 30h3M45 30h3M53 30h3M8 31h3M16 31h3M45 31h3M53 31h3M8 32h3M19 32h2M43 32h2M53 32h3M8 33h3M19 33h2M43 33h2M53 33h3M8 34h3M19 34h2M43 34h2M53 34h3M8 35h3M19 35h2M43 35h2M53 35h3M8 36h3M19 36h2M43 36h2M53 36h3M8 37h3M19 37h2M43 37h2M53 37h3M8 38h3M19 38h2M43 38h2M53 38h3M8 39h3M19 39h2M43 39h2M53 39h3M11 40h2M19 40h2M43 40h2M51 40h2M11 41h2M19 41h2M43 41h2M51 41h2M11 42h2M19 42h2M43 42h2M51 42h2M11 43h2M19 43h5M40 43h5M51 43h2M11 44h2M19 44h5M40 44h5M51 44h2M13 45h3M21 45h22M48 45h3M13 46h3M21 46h22M48 46h3M13 47h3M21 47h22M48 47h3M16 48h3M45 48h3M16 49h3M45 49h3M16 50h3M45 50h3M19 51h5M40 51h5M19 52h5M40 52h5M24 53h16M24 54h16M24 55h16" />
<path stroke="#feea72" d="M24 11h11M37 11h3M24 12h11M37 12h3M19 13h8M19 14h8M19 15h8M16 16h5M16 17h5M16 18h5M13 19h6M13 20h6M13 21h3M21 21h3M35 21h2M13 22h3M21 22h3M35 22h2M13 23h3M21 23h3M35 23h2M11 24h5M19 24h2M11 25h5M19 25h2M11 26h5M19 26h2M11 27h2M11 28h2M11 29h2M11 30h2M11 31h2M11 32h2M21 32h3M11 33h2M21 33h3M11 34h2M21 34h3M11 37h2M21 37h3M11 38h2M21 38h3M11 39h2M21 39h3" />
<path stroke="#ffd000" d="M35 11h2M35 12h2M27 13h18M27 14h18M27 15h18M21 16h27M21 17h27M21 18h27M29 19h6M45 19h6M29 20h6M45 20h6M27 21h2M37 21h6M48 21h3M27 22h2M37 22h6M48 22h3M27 23h2M37 23h6M48 23h3M21 24h11M35 24h8M48 24h5M21 25h11M35 25h8M48 25h5M21 26h11M35 26h8M48 26h5M13 27h3M21 27h19M48 27h5M13 28h3M21 28h19M48 28h5M13 29h3M19 29h16M43 29h2M48 29h3M13 30h3M19 30h16M43 30h2M48 30h3M13 31h3M19 31h16M43 31h2M48 31h3M13 32h6M24 32h5M45 32h6M13 33h6M24 33h5M45 33h6M13 34h6M24 34h5M45 34h6M11 35h8M21 35h8M45 35h6M11 36h8M21 36h8M45 36h6M13 37h6M24 37h3M45 37h6M13 38h6M24 38h3M45 38h6M13 39h6M24 39h3M45 39h6M13 40h6M24 40h3M40 40h3M45 40h3M13 41h6M24 41h3M40 41h3M45 41h3M13 42h6M24 42h3M40 42h3M45 42h3M13 43h6M35 43h5M45 43h3M13 44h6M35 44h5M45 44h3M16 45h5M43 45h2M16 46h5M43 46h2M16 47h5M43 47h2M19 48h24M19 49h24M19 50h24M27 51h5M27 52h5" />
<path stroke="#f3dd57" d="M24 21h3M24 22h3M24 23h3M32 24h3M32 25h3M32 26h3" />
<path stroke="#e9b62e" d="M43 24h2M43 25h2M43 26h2M43 27h2M43 28h2M37 29h6M51 29h2M37 30h6M51 30h2M37 31h6M51 31h2M32 32h11M51 32h2M32 33h11M51 33h2M32 34h11M51 34h2M32 35h11M51 35h2M32 36h11M51 36h2M29 37h11M51 37h2M29 38h11M51 38h2M29 39h11M51 39h2M27 40h10M48 40h3M27 41h10M48 41h3M27 42h10M48 42h3M27 43h5M48 43h3M27 44h5M48 44h3M45 45h3M45 46h3M45 47h3M43 48h2M43 49h2M43 50h2M24 51h3M32 51h8M24 52h3M32 52h8" />
<path stroke="#efd53c" d="M19 27h2M19 28h2M21 40h3M21 41h3M21 42h3" />
<path stroke="#f1c142" d="M40 27h3M40 28h3M35 29h2M35 30h2M35 31h2M29 32h3M29 33h3M29 34h3M29 35h3M29 36h3M27 37h2M40 37h3M27 38h2M40 38h3M27 39h2M40 39h3M37 40h3M37 41h3M37 42h3M24 43h3M32 43h3M24 44h3M32 44h3" />
</svg>