<svg xmlns="http://www.w3.org/2000/svg" viewBox="0 -0.5 32 32" shape-rendering="crispEdges">
<metadata>Made with Pixels to Svg https://codepen.io/shshaw/pen/XbxvNj</metadata>
<path stroke="rgba(90,74,49,0.12156862745098039)" d="M1 0h1" />
<path stroke="#574634" d="M2 0h1" />
<path stroke="rgba(86,67,49,0.788235294117647)" d="M3 0h1" />
<path stroke="rgba(85,85,85,0.023529411764705882)" d="M4 0h1" />
<path stroke="rgba(102,51,51,0.0196078431372549)" d="M26 0h1" />
<path stroke="rgba(89,71,53,0.7294117647058823)" d="M27 0h1" />
<path stroke="#584635" d="M28 0h1M8 31h16" />
<path stroke="rgba(92,75,54,0.1843137254901961)" d="M29 0h1" />
<path stroke="rgba(0,0,0,0.00392156862745098)" d="M30 0h1M31 2h1M0 14h1M31 14h1M2 31h1" />
<path stroke="rgba(127,95,95,0.03137254901960784)" d="M0 1h1M0 2h1M31 3h1M0 12h1M31 12h1M0 13h1M31 13h1" />
<path stroke="#614f3c" d="M1 1h1M1 2h1M1 12h1M30 12h1" />
<path stroke="#dcbd96" d="M2 1h1" />
<path stroke="#9d7246" d="M3 1h1" />
<path stroke="rgba(91,71,50,0.7450980392156863)" d="M4 1h1" />
<path stroke="rgba(95,79,63,0.06274509803921569)" d="M5 1h1" />
<path stroke="rgba(91,91,72,0.054901960784313725)" d="M25 1h1" />
<path stroke="rgba(97,78,59,0.6901960784313725)" d="M26 1h1" />
<path stroke="#d2bda3" d="M27 1h1" />
<path stroke="#ecd1af" d="M28 1h1M27 27h1" />
<path stroke="#6a5744" d="M29 1h1" />
<path stroke="rgba(85,74,53,0.09411764705882353)" d="M30 1h1M6 2h1M1 15h1M30 15h1M1 16h1M30 16h1M1 17h1M30 17h1M1 18h1M30 18h1M1 19h1M30 19h1M1 20h1M30 20h1M1 21h1M30 21h1M1 22h1M30 22h1M1 23h1M30 23h1M1 24h1M30 24h1M1 25h1M30 25h1M1 26h1M30 26h1M1 27h1M30 27h1M1 28h1M30 28h1" />
<path stroke="#e8cca9" d="M2 2h1" />
<path stroke="#d6b792" d="M3 2h1" />
<path stroke="#916d48" d="M4 2h1" />
<path stroke="rgba(94,73,52,0.7098039215686275)" d="M5 2h1" />
<path stroke="rgba(84,72,60,0.08235294117647059)" d="M24 2h1" />
<path stroke="rgba(94,71,53,0.6588235294117647)" d="M25 2h1" />
<path stroke="#b9a081" d="M26 2h1" />
<path stroke="#f9e0c2" d="M27 2h1" />
<path stroke="#ffe8cb" d="M28 2h1M27 3h3M1 4h2M27 4h3M1 5h2M27 5h4M1 6h3M28 6h3M1 7h3M7 7h2M22 7h3M28 7h3M1 8h2M6 8h5M20 8h6M28 8h3M1 9h2M5 9h8M18 9h10M30 9h1M1 10h27M3 11h26M3 12h26M3 13h26M3 14h26M3 15h26M3 16h26M3 17h7M14 17h3M21 17h8M3 18h3M25 18h4M3 19h2M26 19h3M3 20h2M26 20h3M3 21h3M10 21h5M16 21h5M25 21h4M3 22h3M8 22h7M16 22h7M25 22h3M3 23h11M17 23h11M3 24h11M17 24h11M3 25h25M4 26h23M4 27h23M5 28h21M8 29h16" />
<path stroke="#85725d" d="M29 2h1" />
<path stroke="rgba(97,80,63,0.23529411764705882)" d="M30 2h1" />
<path stroke="rgba(86,74,53,0.24313725490196078)" d="M0 3h1" />
<path stroke="#85725e" d="M1 3h1" />
<path stroke="#fce4c6" d="M2 3h1M3 8h1" />
<path stroke="#e9cdab" d="M3 3h1" />
<path stroke="#d4b48e" d="M4 3h1" />
<path stroke="#916f4b" d="M5 3h1" />
<path stroke="rgba(98,76,54,0.6823529411764706)" d="M6 3h1" />
<path stroke="rgba(85,68,51,0.11764705882352941)" d="M7 3h1" />
<path stroke="rgba(88,78,49,0.10196078431372549)" d="M23 3h1" />
<path stroke="rgba(96,75,53,0.6352941176470588)" d="M24 3h1" />
<path stroke="#8d6b49" d="M25 3h1" />
<path stroke="#e2c5a3" d="M26 3h1" />
<path stroke="#63523f" d="M30 3h1" />
<path stroke="#584736" d="M0 4h1M0 5h1M31 5h1M0 6h1M31 6h1M0 7h1M31 7h1M0 8h1M31 8h1M0 9h1M31 9h1M0 10h1M31 10h1" />
<path stroke="#f9e1c2" d="M3 4h1" />
<path stroke="#e4c8a4" d="M4 4h1M5 5h1M25 5h1M5 6h1" />
<path stroke="#d1b28c" d="M5 4h1" />
<path stroke="#91704d" d="M6 4h1" />
<path stroke="rgba(98,75,54,0.6627450980392157)" d="M7 4h1" />
<path stroke="rgba(81,67,53,0.2823529411764706)" d="M8 4h1M22 4h1" />
<path stroke="rgba(79,70,61,0.11372549019607843)" d="M9 4h1" />
<path stroke="rgba(91,61,50,0.09803921568627451)" d="M21 4h1" />
<path stroke="rgba(98,74,53,0.6196078431372549)" d="M23 4h1" />
<path stroke="#8d6c4a" d="M24 4h1" />
<path stroke="#cead87" d="M25 4h1" />
<path stroke="#f6ddbe" d="M26 4h1M26 5h1" />
<path stroke="#8f7c67" d="M30 4h1" />
<path stroke="rgba(89,76,56,0.30196078431372547)" d="M31 4h1M0 11h1M31 11h1" />
<path stroke="#fbe3c5" d="M3 5h1M14 18h3" />
<path stroke="#ebd0ae" d="M4 5h1" />
<path stroke="#d0b08a" d="M6 5h1" />
<path stroke="#9d7f5e" d="M7 5h1" />
<path stroke="#745c44" d="M8 5h1" />
<path stroke="rgba(96,73,49,0.611764705882353)" d="M9 5h1" />
<path stroke="rgba(84,69,49,0.34509803921568627)" d="M10 5h11" />
<path stroke="rgba(98,77,54,0.5686274509803921)" d="M21 5h1" />
<path stroke="#6b5136" d="M22 5h1" />
<path stroke="#8d6d4b" d="M23 5h1" />
<path stroke="#cdac86" d="M24 5h1" />
<path stroke="#f7dfc0" d="M4 6h1M4 7h1M27 7h1M4 9h1" />
<path stroke="#e8cdaa" d="M6 6h1M25 6h1M5 7h1M26 7h1M29 11h1M2 12h1M29 12h1M5 29h2M25 29h1" />
<path stroke="#efd5b4" d="M7 6h1M24 6h1" />
<path stroke="#d2b390" d="M8 6h1" />
<path stroke="#8d6e4e" d="M9 6h1" />
<path stroke="#6f5337" d="M10 6h11" />
<path stroke="#8c6d4e" d="M21 6h1" />
<path stroke="#c29f79" d="M22 6h1" />
<path stroke="#d7b895" d="M23 6h1" />
<path stroke="#efd4b3" d="M26 6h1" />
<path stroke="#fce4c7" d="M27 6h1" />
<path stroke="#f6debf" d="M6 7h1M25 7h1M28 22h1" />
<path stroke="#dfc19f" d="M9 7h1" />
<path stroke="#c9a782" d="M10 7h1M20 7h1" />
<path stroke="#a67d53" d="M11 7h1" />
<path stroke="#996d41" d="M12 7h7M14 8h3" />
<path stroke="#a37a4f" d="M19 7h1" />
<path stroke="#dbbd9b" d="M21 7h1" />
<path stroke="#f1d8b7" d="M4 8h1M3 26h1M26 28h1" />
<path stroke="#f7debf" d="M5 8h1M26 8h1" />
<path stroke="#ddbf9d" d="M11 8h1" />
<path stroke="#cfae8a" d="M12 8h1M18 8h1" />
<path stroke="#a1774c" d="M13 8h1" />
<path stroke="#9e7348" d="M17 8h1" />
<path stroke="#dabb98" d="M19 8h1" />
<path stroke="#fbe4c6" d="M27 8h1" />
<path stroke="#fde5c8" d="M3 9h1" />
<path stroke="#dcbe9c" d="M13 9h1" />
<path stroke="#d6b693" d="M14 9h3" />
<path stroke="#d9bb98" d="M17 9h1" />
<path stroke="#f2d9b9" d="M28 9h1M27 26h1" />
<path stroke="#fce5c7" d="M29 9h1" />
<path stroke="#f8dfc1" d="M28 10h1" />
<path stroke="#efd5b3" d="M29 10h1M2 11h1" />
<path stroke="#fde6c9" d="M30 10h1M17 17h1" />
<path stroke="#8d7a64" d="M1 11h1" />
<path stroke="#8c7963" d="M30 11h1" />
<path stroke="#554433" d="M1 13h1M30 13h1" />
<path stroke="#816e58" d="M2 13h1M29 13h1" />
<path stroke="rgba(83,72,55,0.1803921568627451)" d="M1 14h1M30 14h1" />
<path stroke="#6e5c49" d="M2 14h1M29 14h1M2 15h1M29 15h1M2 16h1M29 16h1M2 17h1M29 17h1M2 18h1M29 18h1M2 19h1M29 19h1M2 20h1M29 20h1M2 21h1M29 21h1M2 22h1M2 23h1M2 24h1M2 25h1" />
<path stroke="#efdabf" d="M10 17h1" />
<path stroke="#e7d2b8" d="M11 17h2M18 17h2M17 18h1" />
<path stroke="#fbe5c8" d="M13 17h1M15 24h1" />
<path stroke="#eed8bd" d="M20 17h1" />
<path stroke="#efd9be" d="M6 18h1M9 18h1" />
<path stroke="#d7c4ab" d="M7 18h2M13 18h1M22 18h2" />
<path stroke="#585046" d="M10 18h1M10 19h1M8 21h1M22 21h1" />
<path stroke="#000000" d="M11 18h2M18 18h2" />
<path stroke="#484139" d="M20 18h1" />
<path stroke="#f1dcc0" d="M21 18h1" />
<path stroke="#ecd7bc" d="M24 18h1M5 19h1" />
<path stroke="#8d8070" d="M6 19h1" />
<path stroke="#38332c" d="M7 19h2M22 19h2" />
<path stroke="#ae9e8b" d="M9 19h1" />
<path stroke="#070707" d="M11 19h1" />
<path stroke="#0a0a0a" d="M12 19h1M19 19h1" />
<path stroke="#d4bfa6" d="M13 19h1" />
<path stroke="#c2ac8f" d="M14 19h1" />
<path stroke="#bca68a" d="M15 19h1" />
<path stroke="#b49e82" d="M16 19h1" />
<path stroke="#e2ccb0" d="M17 19h1" />
<path stroke="#020202" d="M18 19h1" />
<path stroke="#4f4840" d="M20 19h1" />
<path stroke="#bbaa94" d="M21 19h1" />
<path stroke="#847869" d="M24 19h1" />
<path stroke="#e8d3b9" d="M25 19h1" />
<path stroke="#c0af99" d="M5 20h1" />
<path stroke="#928574" d="M6 20h1" />
<path stroke="#ddc9b0" d="M7 20h1" />
<path stroke="#b7a792" d="M8 20h1M22 20h1" />
<path stroke="#e2cdb4" d="M9 20h1" />
<path stroke="#877b6b" d="M10 20h1" />
<path stroke="#5f5951" d="M11 20h1" />
<path stroke="#69625a" d="M12 20h1M19 20h1" />
<path stroke="#d7c0a2" d="M13 20h1" />
<path stroke="#756d62" d="M14 20h1" />
<path stroke="#232323" d="M15 20h1" />
<path stroke="#4d463d" d="M16 20h1" />
<path stroke="#dcc4a4" d="M17 20h1" />
<path stroke="#4d463e" d="M18 20h1" />
<path stroke="#93887a" d="M20 20h1" />
<path stroke="#e6d2b7" d="M21 20h1" />
<path stroke="#d9c5ad" d="M23 20h1" />
<path stroke="#9e8f7d" d="M24 20h1" />
<path stroke="#b5a490" d="M25 20h1" />
<path stroke="#dbc8af" d="M6 21h1" />
<path stroke="#827667" d="M7 21h1" />
<path stroke="#bbaa95" d="M9 21h1" />
<path stroke="#5d554a" d="M15 21h1" />
<path stroke="#c5b49d" d="M21 21h1" />
<path stroke="#7d7264" d="M23 21h1" />
<path stroke="#d6c3aa" d="M24 21h1" />
<path stroke="#c1b09a" d="M6 22h1" />
<path stroke="#af9f8b" d="M7 22h1" />
<path stroke="#9b8d7b" d="M15 22h1" />
<path stroke="#b8a792" d="M23 22h2" />
<path stroke="#6c5a47" d="M29 22h1" />
<path stroke="#938575" d="M14 23h1M14 24h1" />
<path stroke="#786d60" d="M15 23h1" />
<path stroke="#8b7f6f" d="M16 23h1M16 24h1" />
<path stroke="#eacfad" d="M28 23h1M28 24h1" />
<path stroke="#6a5743" d="M29 23h1M29 24h1" />
<path stroke="#bf9d77" d="M28 25h1" />
<path stroke="#614d38" d="M29 25h1M2 27h1" />
<path stroke="#6b5945" d="M2 26h1" />
<path stroke="#9e764d" d="M28 26h1" />
<path stroke="#5b4631" d="M29 26h1M29 27h1M29 28h1" />
<path stroke="#c09c75" d="M3 27h1" />
<path stroke="#9c744a" d="M28 27h1" />
<path stroke="#5e4933" d="M2 28h1" />
<path stroke="#ab8259" d="M3 28h1" />
<path stroke="#f0d6b5" d="M4 28h1" />
<path stroke="#b28d66" d="M27 28h1" />
<path stroke="#8c6137" d="M28 28h1" />
<path stroke="rgba(127,127,127,0.01568627450980392)" d="M1 29h1M30 29h1M29 30h1" />
<path stroke="rgba(94,73,52,0.28627450980392155)" d="M2 29h1" />
<path stroke="#6d543a" d="M3 29h1" />
<path stroke="#b8926a" d="M4 29h1" />
<path stroke="#f3daba" d="M7 29h1M24 29h1" />
<path stroke="#b38e66" d="M26 29h1" />
<path stroke="#8c6136" d="M27 29h1" />
<path stroke="#654b31" d="M28 29h1M27 30h1" />
<path stroke="rgba(87,73,52,0.28627450980392155)" d="M29 29h1" />
<path stroke="rgba(89,70,51,0.1568627450980392)" d="M2 30h1" />
<path stroke="#624b34" d="M3 30h1" />
<path stroke="#9b6f44" d="M4 30h1" />
<path stroke="#a0764a" d="M5 30h2" />
<path stroke="#c19e76" d="M7 30h1" />
<path stroke="#e7cba8" d="M8 30h16" />
<path stroke="#b9956e" d="M24 30h1" />
<path stroke="#91663c" d="M25 30h1" />
<path stroke="#8b5f35" d="M26 30h1" />
<path stroke="rgba(86,72,48,0.2901960784313726)" d="M28 30h1" />
<path stroke="rgba(86,69,49,0.24313725490196078)" d="M3 31h1" />
<path stroke="#554331" d="M4 31h3M25 31h2" />
<path stroke="#564533" d="M7 31h1" />
<path stroke="#564433" d="M24 31h1" />
<path stroke="rgba(86,66,52,0.30196078431372547)" d="M27 31h1" />
<path stroke="rgba(255,0,0,0.00784313725490196)" d="M28 31h1" />
</svg>